<svg width="24" height="44" viewBox="0 0 24 44" fill="none" xmlns="http://www.w3.org/2000/svg">
<path d="M22.0088 0.533401C21.7368 -0.0416582 21.7272 -0.0814652 21.9287 0.0871124C22.0498 0.196432 22.3719 0.61346 22.6338 1.00996C23.4397 2.20975 23.8329 3.54823 23.833 5.02559C23.833 6.65198 23.3995 7.71341 22.291 8.84395C21.1724 9.9745 19.9829 10.6691 17.0303 11.8889C13.2316 13.4556 12.5466 13.7535 11.6699 14.2395C10.5211 14.8642 9.23074 15.8659 8.7168 16.5402C7.64889 17.9384 7.16506 19.9313 7.51758 21.5773C7.68889 22.3806 8.26353 23.3826 8.86816 23.9182C9.81538 24.771 10.9339 25.2369 13.8057 25.9807C16.3653 26.6352 17.4342 27.1016 18.3613 27.9445C19.2378 28.7378 19.4492 29.2239 19.4492 30.384C19.4492 31.2666 19.4292 31.3661 19.0967 31.9611C18.8347 32.4371 18.4612 32.8536 17.5342 33.6965C13.564 37.2962 12.5459 38.7939 12.5459 41.0549C12.5459 41.8978 12.7779 42.8499 13.1709 43.6135L13.373 44.0002L13.0801 43.7922C11.7903 42.8699 10.9437 41.1639 10.9336 39.4582C10.9336 38.6351 11.2669 37.356 11.7305 36.3742C12.1739 35.4519 12.4355 35.0551 13.6045 33.508C14.6928 32.08 14.8738 31.5044 14.501 30.7209C14.0978 29.8882 13.3522 29.511 11.166 29.0549C7.70957 28.321 5.87535 27.518 4.25293 26.0305C3.21497 25.0685 2.45934 23.7591 2.00586 22.093C1.85477 21.5576 1.81414 21.0913 1.82422 19.9709C1.8343 18.7117 1.86465 18.4241 2.10645 17.6408C3.27541 13.7731 5.97634 11.4426 10.7832 10.1633C11.398 10.0046 12.8687 9.66703 14.0576 9.41914C17.111 8.78445 18.2604 8.44703 19.6611 7.77266C21.8374 6.73149 22.6033 5.75988 22.7041 3.95528C22.7646 2.84456 22.5026 1.54495 22.0088 0.533401ZM1.22949 16.8273C1.24963 16.8571 1.20943 17.0057 1.12891 17.1643C0.554502 18.275 0.262447 20.834 0.554688 22.2522C0.988014 24.3544 2.07589 26.0901 3.66797 27.2404C5.11906 28.2916 6.98358 28.9958 10.3291 29.7297C11.4678 29.9776 12.5967 30.2853 12.8486 30.4143C13.4228 30.7018 13.7955 31.3359 13.7051 31.8713C13.6345 32.2382 13.2513 32.9524 13.0195 33.1408C12.8987 33.2398 12.8987 33.1904 13.0195 32.7443C13.1807 32.1196 13.1205 31.7728 12.7881 31.3762C12.4656 30.9993 11.7906 30.761 10.1279 30.4338C6.21795 29.6702 4.21212 28.8074 2.46875 27.1115C1.58207 26.2488 1.44098 26.0698 0.916992 25.0285C0.121043 23.4222 0 22.9163 0 21.1115C1.36277e-06 19.8523 0.0400734 19.5149 0.231445 18.9201C0.463166 18.1765 1.1486 16.7488 1.22949 16.8273ZM23.8125 8.84395C23.8327 9.07204 23.772 9.5085 23.6914 9.7961C23.2077 11.4324 21.636 12.6917 18.4014 14.0305C14.31 15.7164 13.2821 16.2425 12.2139 17.1945C10.5512 18.6821 9.97645 20.9832 10.833 22.7385C11.0951 23.264 11.8509 24.057 12.4453 24.4338C12.7174 24.6123 12.9492 24.7714 12.9492 24.7912C12.9466 24.8591 12.2228 24.542 11.75 24.2648C9.5736 23.0152 8.96927 19.9409 10.4707 17.7395C11.4684 16.2719 12.9603 15.3599 17.001 13.7336C20.2556 12.4247 21.5854 11.7001 22.583 10.6887C23.0969 10.1631 23.5402 9.39951 23.6914 8.76485L23.7822 8.41719L23.8125 8.84395Z" fill="white"/>
</svg>
