<svg xmlns="http://www.w3.org/2000/svg" version="1.1" xmlns:xlink="http://www.w3.org/1999/xlink" width="48" height="48"><svg width="48" height="48" viewBox="0 0 48 48" fill="none" xmlns="http://www.w3.org/2000/svg">
<path d="M34.0088 2.5334C33.7368 1.95834 33.7272 1.91854 33.9287 2.08712C34.0498 2.19643 34.3719 2.61346 34.6338 3.00997C35.4397 4.20975 35.8329 5.54823 35.833 7.02559C35.833 8.65198 35.3995 9.71341 34.291 10.844C33.1724 11.9745 31.9829 12.6691 29.0303 13.8889C25.2316 15.4556 24.5466 15.7536 23.6699 16.2395C22.5211 16.8642 21.2307 17.8659 20.7168 18.5402C19.6489 19.9384 19.1651 21.9313 19.5176 23.5773C19.6889 24.3806 20.2635 25.3826 20.8682 25.9182C21.8154 26.771 22.9339 27.2369 25.8057 27.9807C28.3653 28.6352 29.4342 29.1016 30.3613 29.9445C31.2378 30.7378 31.4492 31.2239 31.4492 32.384C31.4492 33.2666 31.4292 33.3661 31.0967 33.9611C30.8347 34.4371 30.4612 34.8536 29.5342 35.6965C25.564 39.2962 24.5459 40.7939 24.5459 43.0549C24.5459 43.8978 24.7779 44.8499 25.1709 45.6135L25.373 46.0002L25.0801 45.7922C23.7903 44.8699 22.9437 43.1639 22.9336 41.4582C22.9336 40.6351 23.2669 39.356 23.7305 38.3742C24.1739 37.452 24.4355 37.0551 25.6045 35.508C26.6928 34.08 26.8738 33.5044 26.501 32.7209C26.0978 31.8882 25.3522 31.511 23.166 31.0549C19.7096 30.321 17.8753 29.518 16.2529 28.0305C15.215 27.0685 14.4593 25.7591 14.0059 24.093C13.8548 23.5576 13.8141 23.0913 13.8242 21.9709C13.8343 20.7117 13.8647 20.4241 14.1064 19.6408C15.2754 15.7731 17.9763 13.4426 22.7832 12.1633C23.398 12.0046 24.8687 11.667 26.0576 11.4191C29.111 10.7844 30.2604 10.447 31.6611 9.77266C33.8374 8.73149 34.6033 7.75988 34.7041 5.95528C34.7646 4.84456 34.5026 3.54495 34.0088 2.5334ZM13.2295 18.8273C13.2496 18.8571 13.2094 19.0057 13.1289 19.1643C12.5545 20.275 12.2624 22.834 12.5547 24.2522C12.988 26.3544 14.0759 28.0901 15.668 29.2404C17.1191 30.2916 18.9836 30.9958 22.3291 31.7297C23.4678 31.9776 24.5967 32.2853 24.8486 32.4143C25.4228 32.7018 25.7955 33.3359 25.7051 33.8713C25.6345 34.2382 25.2513 34.9524 25.0195 35.1408C24.8987 35.2398 24.8987 35.1904 25.0195 34.7443C25.1807 34.1196 25.1205 33.7728 24.7881 33.3762C24.4656 32.9993 23.7906 32.761 22.1279 32.4338C18.2179 31.6702 16.2121 30.8074 14.4688 29.1115C13.5821 28.2489 13.441 28.0698 12.917 27.0285C12.121 25.4222 12 24.9163 12 23.1115C12 21.8523 12.0401 21.5149 12.2314 20.9201C12.4632 20.1765 13.1486 18.7488 13.2295 18.8273ZM35.8125 10.844C35.8327 11.072 35.772 11.5085 35.6914 11.7961C35.2077 13.4324 33.636 14.6917 30.4014 16.0305C26.31 17.7164 25.2821 18.2425 24.2139 19.1945C22.5512 20.6821 21.9765 22.9832 22.833 24.7385C23.0951 25.264 23.8509 26.057 24.4453 26.4338C24.7174 26.6123 24.9492 26.7714 24.9492 26.7912C24.9466 26.8591 24.2228 26.542 23.75 26.2648C21.5736 25.0152 20.9693 21.9409 22.4707 19.7395C23.4684 18.2719 24.9603 17.3599 29.001 15.7336C32.2556 14.4247 33.5854 13.7001 34.583 12.6887C35.0969 12.1631 35.5402 11.3995 35.6914 10.7648L35.7822 10.4172L35.8125 10.844Z" fill="#B8C95A"></path>
</svg><style>@media (prefers-color-scheme: light) { :root { filter: none; } }
@media (prefers-color-scheme: dark) { :root { filter: none; } }
</style></svg>