<svg width="215" height="89" viewBox="0 0 215 89" fill="none" xmlns="http://www.w3.org/2000/svg">
<path d="M102.564 88.073V88.072V88.073ZM88.2162 0.959686C87.7266 -0.0754591 87.708 -0.146478 88.0707 0.156952C88.2884 0.35331 88.8686 1.10308 89.3402 1.81711C90.7914 3.97706 91.4994 6.38682 91.4994 9.0466C91.4994 11.9739 90.7191 13.8838 88.724 15.9187C86.7106 17.9537 84.57 19.2035 79.2553 21.3991C72.4169 24.2196 71.183 24.7549 69.6049 25.6296C67.5371 26.7542 65.2155 28.5574 64.2904 29.7712C62.3677 32.2882 61.4974 35.8763 62.1322 38.8396C62.4406 40.2855 63.4746 42.0885 64.5629 43.0525C66.2679 44.5875 68.2813 45.4266 73.4506 46.7654C78.0579 47.9435 79.981 48.7822 81.6498 50.2995C83.2279 51.7276 83.6088 52.6026 83.6088 54.6911C83.6088 56.2796 83.5724 56.4583 82.974 57.529C82.5024 58.3858 81.8311 59.1359 80.1625 60.653C73.016 67.1327 71.1831 69.8284 71.183 73.8982C71.183 75.4155 71.6006 77.1301 72.308 78.5046L72.6713 79.1999L72.1449 78.8259C69.8231 77.1658 68.2998 74.0945 68.2816 71.0241C68.2818 69.5426 68.88 67.2404 69.7143 65.4734C70.5124 63.8132 70.9842 63.0989 73.0883 60.3142C75.0473 57.7437 75.3737 56.7078 74.7025 55.2976C73.977 53.7984 72.6343 53.1206 68.6986 52.2995C62.4769 50.9786 59.1757 49.5318 56.2553 46.8542C54.387 45.1227 53.0266 42.7662 52.2104 39.7673C51.9384 38.8035 51.8651 37.9647 51.8832 35.948C51.9013 33.6809 51.9557 33.1629 52.391 31.7527C54.4952 24.7908 59.3569 20.5964 68.0092 18.2937C69.1157 18.0081 71.7643 17.4011 73.9047 16.9548C79.4006 15.8124 81.4684 15.2048 83.9897 13.9909C87.9075 12.1167 89.2857 10.3675 89.4672 7.11887C89.576 5.11957 89.105 2.78047 88.2162 0.959686ZM50.8129 30.2888C50.8492 30.3423 50.7773 30.6106 50.6322 30.8962C49.5983 32.8956 49.072 37.5008 49.5981 40.0534C50.378 43.8376 52.3368 46.9613 55.2025 49.032C57.8146 50.9241 61.1706 52.1924 67.1928 53.5134C69.2425 53.9597 71.2745 54.5128 71.7279 54.7448C72.7617 55.2626 73.4322 56.405 73.269 57.3689C73.1419 58.0294 72.4527 59.3149 72.0356 59.654C71.8183 59.832 71.818 59.7419 72.0356 58.9392C72.3257 57.8148 72.2171 57.1903 71.6186 56.4763C71.0381 55.798 69.8231 55.369 66.8305 54.78C59.7926 53.4055 56.1824 51.8529 53.0443 48.8005C51.4481 47.2475 51.1946 46.9258 50.2514 45.0515C48.8184 42.1597 48.6 41.2494 48.6 38.0007C48.6 35.7337 48.6724 35.1264 49.017 34.0554C49.4339 32.7174 50.6666 30.1494 50.8129 30.2888ZM91.4633 15.9187C91.4996 16.3292 91.3906 17.1149 91.2455 17.6325C90.3748 20.5779 87.5447 22.8447 81.7221 25.2546C74.3576 28.2893 72.5071 29.2362 70.5844 30.9499C67.5918 33.6276 66.5583 37.769 68.1 40.9284C68.5718 41.8745 69.9323 43.302 71.0023 43.9802C71.49 44.3001 71.9051 44.5851 71.9086 44.6228C71.9086 44.7477 70.6029 44.1773 69.7504 43.6775C65.8324 41.4283 64.7441 35.8942 67.4467 31.9314C69.2424 29.2895 71.927 27.6469 79.2006 24.7195C85.0595 22.3631 87.4546 21.0598 89.2504 19.239C90.1753 18.2929 90.9735 16.9184 91.2455 15.7761L91.4086 15.1511L91.4633 15.9187Z" fill="#42400C"/>
<path d="M42.1364 51.2546C42.1364 55.8228 41.2705 59.7091 39.5386 62.9137C37.8205 66.1182 35.475 68.5659 32.5023 70.2568C29.5432 71.9341 26.2159 72.7728 22.5205 72.7728C18.7977 72.7728 15.4568 71.9273 12.4977 70.2364C9.53864 68.5455 7.2 66.0978 5.48182 62.8932C3.76364 59.6887 2.90455 55.8091 2.90455 51.2546C2.90455 46.6864 3.76364 42.8 5.48182 39.5955C7.2 36.3909 9.53864 33.95 12.4977 32.2728C15.4568 30.5818 18.7977 29.7364 22.5205 29.7364C26.2159 29.7364 29.5432 30.5818 32.5023 32.2728C35.475 33.95 37.8205 36.3909 39.5386 39.5955C41.2705 42.8 42.1364 46.6864 42.1364 51.2546ZM33.1568 51.2546C33.1568 48.2955 32.7136 45.8 31.8273 43.7682C30.9545 41.7364 29.7205 40.1955 28.125 39.1455C26.5295 38.0955 24.6614 37.5705 22.5205 37.5705C20.3795 37.5705 18.5114 38.0955 16.9159 39.1455C15.3205 40.1955 14.0795 41.7364 13.1932 43.7682C12.3205 45.8 11.8841 48.2955 11.8841 51.2546C11.8841 54.2137 12.3205 56.7091 13.1932 58.7409C14.0795 60.7728 15.3205 62.3137 16.9159 63.3637C18.5114 64.4137 20.3795 64.9387 22.5205 64.9387C24.6614 64.9387 26.5295 64.4137 28.125 63.3637C29.7205 62.3137 30.9545 60.7728 31.8273 58.7409C32.7136 56.7091 33.1568 54.2137 33.1568 51.2546ZM87.0954 37.6114V30.3091H121.5V37.6114H108.675V72.2H99.9205V37.6114H87.0954ZM127.166 72.2V30.3091H155.393V37.6114H136.023V47.5932H153.941V54.8955H136.023V64.8978H155.475V72.2H127.166ZM167.364 67.3318C166.014 67.3318 164.855 66.8546 163.887 65.9C162.932 64.9455 162.455 63.7864 162.455 62.4228C162.455 61.0864 162.932 59.9409 163.887 58.9864C164.855 58.0318 166.014 57.5546 167.364 57.5546C168.673 57.5546 169.819 58.0318 170.801 58.9864C171.782 59.9409 172.273 61.0864 172.273 62.4228C172.273 63.3228 172.041 64.1478 171.578 64.8978C171.128 65.6341 170.535 66.2273 169.798 66.6773C169.062 67.1137 168.251 67.3318 167.364 67.3318ZM167.364 46.775C166.014 46.775 164.855 46.2978 163.887 45.3432C162.932 44.3887 162.455 43.2296 162.455 41.8659C162.455 40.5296 162.932 39.3909 163.887 38.45C164.855 37.4955 166.014 37.0182 167.364 37.0182C168.673 37.0182 169.819 37.4955 170.801 38.45C171.782 39.3909 172.273 40.5296 172.273 41.8659C172.273 42.7796 172.041 43.6114 171.578 44.3614C171.128 45.0978 170.535 45.6841 169.798 46.1205C169.062 46.5568 168.251 46.775 167.364 46.775ZM179.591 72.2V30.3091H196.118C199.295 30.3091 202.002 30.9159 204.239 32.1296C206.475 33.3296 208.18 35 209.352 37.1409C210.539 39.2682 211.132 41.7228 211.132 44.5046C211.132 47.2864 210.532 49.7409 209.332 51.8682C208.132 53.9955 206.393 55.6523 204.116 56.8387C201.852 58.025 199.111 58.6182 195.893 58.6182H185.359V51.5205H194.461C196.166 51.5205 197.57 51.2273 198.675 50.6409C199.793 50.0409 200.625 49.2159 201.17 48.1659C201.73 47.1023 202.009 45.8818 202.009 44.5046C202.009 43.1137 201.73 41.9 201.17 40.8637C200.625 39.8137 199.793 39.0023 198.675 38.4296C197.557 37.8432 196.139 37.55 194.42 37.55H188.448V72.2H179.591Z" fill="#42400C"/>
</svg>
